<svg width="680" height="560" viewBox="0 0 680 560" xmlns="http://www.w3.org/2000/svg">

<!-- PLINTH -->
<polygon points="140,320 340,420 340,460 140,360" fill="#c8b47c"/>
<polygon points="340,420 540,320 540,360 340,460" fill="#7a6838"/>

<!-- LEFT WALL (lit) -->
<polygon points="140,158 340,258 340,420 140,320" fill="#efe3b8"/>

<!-- RIGHT WALL (shadow) -->
<polygon points="340,258 540,158 540,320 340,420" fill="#a89060"/>

<!-- FRIEZE -->
<polygon points="140,130 340,230 340,258 140,158" fill="#d4bc5c"/>
<polygon points="340,230 540,130 540,158 340,258" fill="#988434"/>
<!-- Dentils left -->
<line x1="162" y1="144" x2="162" y2="155" stroke="rgba(0,0,0,0.20)" stroke-width="2"/>
<line x1="183" y1="151" x2="183" y2="162" stroke="rgba(0,0,0,0.20)" stroke-width="2"/>
<line x1="204" y1="158" x2="204" y2="169" stroke="rgba(0,0,0,0.20)" stroke-width="2"/>
<line x1="225" y1="165" x2="225" y2="176" stroke="rgba(0,0,0,0.20)" stroke-width="2"/>
<line x1="246" y1="172" x2="246" y2="183" stroke="rgba(0,0,0,0.20)" stroke-width="2"/>
<line x1="267" y1="179" x2="267" y2="190" stroke="rgba(0,0,0,0.20)" stroke-width="2"/>
<line x1="288" y1="186" x2="288" y2="197" stroke="rgba(0,0,0,0.20)" stroke-width="2"/>
<line x1="309" y1="193" x2="309" y2="204" stroke="rgba(0,0,0,0.20)" stroke-width="2"/>
<!-- Dentils right -->
<line x1="362" y1="245" x2="362" y2="234" stroke="rgba(0,0,0,0.14)" stroke-width="2"/>
<line x1="383" y1="238" x2="383" y2="227" stroke="rgba(0,0,0,0.14)" stroke-width="2"/>
<line x1="404" y1="231" x2="404" y2="220" stroke="rgba(0,0,0,0.14)" stroke-width="2"/>
<line x1="425" y1="224" x2="425" y2="213" stroke="rgba(0,0,0,0.14)" stroke-width="2"/>
<line x1="446" y1="217" x2="446" y2="206" stroke="rgba(0,0,0,0.14)" stroke-width="2"/>
<line x1="467" y1="210" x2="467" y2="199" stroke="rgba(0,0,0,0.14)" stroke-width="2"/>
<line x1="488" y1="203" x2="488" y2="192" stroke="rgba(0,0,0,0.14)" stroke-width="2"/>
<line x1="509" y1="196" x2="509" y2="185" stroke="rgba(0,0,0,0.14)" stroke-width="2"/>

<!-- WINDOW -->
<polygon points="174,204 222,226 222,282 174,260" fill="none" stroke="#9a7e30" stroke-width="3.5" stroke-linejoin="round"/>
<polygon points="180,208 216,228 216,276 180,256" fill="#160a04"/>
<line x1="198" y1="210" x2="198" y2="274" stroke="#3e2808" stroke-width="1.5"/>
<line x1="180" y1="242" x2="216" y2="262" stroke="#3e2808" stroke-width="1.5"/>
<polygon points="171,200 225,224 225,232 171,208" fill="#d4bc5c"/>

<!-- DOOR -->
<polygon points="403,432 456,410 456,298 403,320" fill="#d4bc5c"/>
<path d="M 410,428 L 452,408 L 452,346 Q 452,310 431,303 Q 410,310 410,346 Z" fill="#160a04"/>
<path d="M 410,346 Q 410,310 431,303 Q 452,310 452,346" fill="none" stroke="#9a7e30" stroke-width="1.5"/>
<polygon points="426,303 436,303 438,315 424,315" fill="#f0d870"/>
<line x1="431" y1="410" x2="431" y2="356" stroke="#1e1008" stroke-width="1" opacity="0.5"/>
<circle cx="444" cy="386" r="3" fill="none" stroke="#8a6828" stroke-width="1.5"/>

<!-- PILASTERS -->
<polygon points="140,130 157,138 157,360 140,360" fill="#faf2d8"/>
<polygon points="322,222 340,230 340,460 322,452" fill="#faf2d8"/>
<polygon points="340,230 358,222 358,452 340,460" fill="#c0a86c"/>
<polygon points="522,138 540,130 540,360 522,360" fill="#c0a86c"/>
<line x1="140" y1="130" x2="157" y2="138" stroke="#b09040" stroke-width="2"/>
<line x1="322" y1="222" x2="340" y2="230" stroke="#b09040" stroke-width="2"/>
<line x1="340" y1="230" x2="358" y2="222" stroke="#907030" stroke-width="2"/>
<line x1="522" y1="138" x2="540" y2="130" stroke="#907030" stroke-width="2"/>
<line x1="140" y1="360" x2="157" y2="360" stroke="#908040" stroke-width="1.5"/>
<line x1="322" y1="452" x2="340" y2="460" stroke="#908040" stroke-width="1.5"/>
<line x1="340" y1="460" x2="358" y2="452" stroke="#706830" stroke-width="1.5"/>
<line x1="522" y1="360" x2="540" y2="360" stroke="#706830" stroke-width="1.5"/>

<!-- CLIMBING VINE -->
<path d="M 150,356 C 144,334 157,312 148,288 C 140,265 155,243 148,220 C 141,198 153,177 149,154 C 146,141 150,133 152,129"
      fill="none" stroke="#3a6016" stroke-width="2.5" stroke-linecap="round"/>
<path d="M 149,288 C 162,282 174,274 178,266" fill="none" stroke="#3a6016" stroke-width="1.5" stroke-linecap="round"/>
<path d="M 148,222 C 161,218 170,210 167,202" fill="none" stroke="#3a6016" stroke-width="1.5" stroke-linecap="round"/>
<ellipse cx="146" cy="344" rx="9"   ry="5.5" fill="#4c8620" transform="rotate(-28 146 344)"/>
<ellipse cx="154" cy="339" rx="7"   ry="4"   fill="#60a02c" transform="rotate(14 154 339)"/>
<ellipse cx="144" cy="320" rx="8"   ry="5"   fill="#5a9620" transform="rotate(22 144 320)"/>
<ellipse cx="153" cy="315" rx="6"   ry="3.5" fill="#70b030" transform="rotate(-10 153 315)"/>
<ellipse cx="146" cy="296" rx="9"   ry="5.5" fill="#4c8620" transform="rotate(-24 146 296)"/>
<ellipse cx="155" cy="290" rx="6.5" ry="4"   fill="#60a02c" transform="rotate(18 155 290)"/>
<ellipse cx="173" cy="270" rx="7"   ry="4"   fill="#5a9620" transform="rotate(34 173 270)"/>
<ellipse cx="179" cy="264" rx="5.5" ry="3.5" fill="#70b030" transform="rotate(-18 179 264)"/>
<ellipse cx="146" cy="276" rx="8"   ry="4.5" fill="#4c8620" transform="rotate(10 146 276)"/>
<ellipse cx="149" cy="250" rx="7.5" ry="4.5" fill="#60a02c" transform="rotate(-17 149 250)"/>
<ellipse cx="143" cy="230" rx="7"   ry="4"   fill="#5a9620" transform="rotate(21 143 230)"/>
<ellipse cx="164" cy="207" rx="6.5" ry="4"   fill="#70b030" transform="rotate(-28 164 207)"/>
<ellipse cx="170" cy="201" rx="5"   ry="3"   fill="#60a02c" transform="rotate(12 170 201)"/>
<ellipse cx="148" cy="210" rx="7"   ry="4"   fill="#4c8620" transform="rotate(15 148 210)"/>
<ellipse cx="150" cy="188" rx="6"   ry="3.5" fill="#5a9620" transform="rotate(-12 150 188)"/>
<ellipse cx="152" cy="166" rx="6.5" ry="3.5" fill="#60a02c" transform="rotate(24 152 166)"/>
<ellipse cx="145" cy="158" rx="5.5" ry="3"   fill="#4c8620" transform="rotate(-19 145 158)"/>
<circle cx="148" cy="335" r="2"   fill="#8a3030" opacity="0.85"/>
<circle cx="155" cy="282" r="1.8" fill="#8a3030" opacity="0.80"/>
<circle cx="151" cy="234" r="2"   fill="#8a3030" opacity="0.75"/>

<!-- DOORSTEP POTS -->
<path d="M 392,440 Q 392,451 401,453 Q 410,451 410,440 L 408,433 L 394,433 Z" fill="#aa5224"/>
<ellipse cx="401" cy="433" rx="8.5" ry="3.5" fill="#c46234"/>
<ellipse cx="401" cy="432" rx="6.5" ry="2.5" fill="#644018"/>
<ellipse cx="401" cy="420" rx="11"  ry="8"   fill="#488018"/>
<ellipse cx="394" cy="417" rx="8"   ry="6"   fill="#58982a"/>
<ellipse cx="408" cy="416" rx="9"   ry="6"   fill="#3c6c14"/>
<ellipse cx="401" cy="413" rx="7"   ry="5"   fill="#62a82c"/>
<circle cx="397" cy="411" r="2.2"  fill="#f0e060" opacity="0.9"/>
<circle cx="406" cy="414" r="1.8"  fill="#f0e060" opacity="0.9"/>
<path d="M 452,421 Q 452,432 461,434 Q 470,432 470,421 L 468,414 L 454,414 Z" fill="#aa5224"/>
<ellipse cx="461" cy="414" rx="8.5" ry="3.5" fill="#c46234"/>
<ellipse cx="461" cy="413" rx="6.5" ry="2.5" fill="#644018"/>
<ellipse cx="461" cy="401" rx="11"  ry="8"   fill="#488018"/>
<ellipse cx="454" cy="398" rx="8"   ry="6"   fill="#58982a"/>
<ellipse cx="468" cy="397" rx="9"   ry="6"   fill="#3c6c14"/>
<ellipse cx="461" cy="394" rx="7"   ry="5"   fill="#62a82c"/>
<circle cx="457" cy="392" r="2.2"  fill="#f0d050" opacity="0.9"/>
<circle cx="465" cy="395" r="1.8"  fill="#f0e060" opacity="0.9"/>

<!-- HIP ROOF -->
<polygon points="340,230 140,130 340,28" fill="#d85a2c"/>
<polygon points="340,230 540,130 340,28" fill="#782210"/>
<polygon points="140,130 340,28 340,35"  fill="#9c3014"/>
<polygon points="540,130 340,28 340,35"  fill="#260a04"/>
<!-- Eave fascia -->
<polygon points="340,230 140,130 133,134 337,236" fill="#b84820"/>
<polygon points="340,230 540,130 547,134 343,236" fill="#4c1408"/>
<!-- Tile courses lit -->
<line x1="180" y1="148" x2="338" y2="30"  stroke="rgba(0,0,0,0.13)" stroke-width="1.5"/>
<line x1="220" y1="166" x2="338" y2="38"  stroke="rgba(0,0,0,0.11)" stroke-width="1.5"/>
<line x1="263" y1="185" x2="339" y2="52"  stroke="rgba(0,0,0,0.09)" stroke-width="1.5"/>
<line x1="305" y1="204" x2="340" y2="76"  stroke="rgba(0,0,0,0.07)" stroke-width="1"/>
<!-- Tile courses shade -->
<line x1="500" y1="148" x2="342" y2="30"  stroke="rgba(0,0,0,0.08)" stroke-width="1.5"/>
<line x1="460" y1="166" x2="342" y2="38"  stroke="rgba(0,0,0,0.06)" stroke-width="1.5"/>
<line x1="417" y1="185" x2="341" y2="52"  stroke="rgba(0,0,0,0.05)" stroke-width="1"/>
<!-- Ridge -->
<line x1="140" y1="130" x2="340" y2="28" stroke="#f07848" stroke-width="3.5"/>
<line x1="540" y1="130" x2="340" y2="28" stroke="#9c3014" stroke-width="3"/>
<polygon points="332,24 348,24 344,34 336,34" fill="#e86030"/>

<!-- OUTLINES -->
<polygon points="340,28 140,130 140,360 340,460 540,360 540,130 340,28"
         fill="none" stroke="#1A0A00" stroke-width="1.4" stroke-linejoin="round" stroke-linecap="round"/>
<line x1="340" y1="230" x2="340" y2="460" stroke="#1A0A00" stroke-width="0.8" opacity="0.5"/>
<line x1="140" y1="130" x2="340" y2="230" stroke="#1A0A00" stroke-width="0.8" opacity="0.4"/>
<line x1="340" y1="230" x2="540" y2="130" stroke="#1A0A00" stroke-width="0.8" opacity="0.4"/>

</svg>
